# xmcd
#
# Track frame offsets:
#	150
#	14460
#	31360
#	52580
#	72351
#	81646
#	98407
#	112688
#	130496
#	144025
#	158210
#	170806
#	191556
#
# Disc length: 2879 seconds
#
# Revision: 0
# Processed by: cddbd v1.5PL3 Copyright (c) Steve Scherf et al.
# Submitted via: dBpowerAMP V4.0
#
DISCID=a40b3d0d
DTITLE=Pie Eyed Pete - Pie Eyed Pete
DYEAR=1900
DGENRE=Country
TTITLE0=Hey Bud (Lament Of The Common Man)
TTITLE1=Quarter To 10
TTITLE2=Land Of Lincoln
TTITLE3=Nitetime
TTITLE4=Suicide Theme Song
TTITLE5=I'm The Man
TTITLE6=Spring Sunshine
TTITLE7=Another Day
TTITLE8=Pride And Joy
TTITLE9=McFarley
TTITLE10=Clown
TTITLE11=Rise Up
TTITLE12=DATA
EXTD=
EXTT0=
EXTT1=
EXTT2=
EXTT3=
EXTT4=
EXTT5=
EXTT6=
EXTT7=
EXTT8=
EXTT9=
EXTT10=
EXTT11=
EXTT12=
PLAYORDER=
